<svg width="32" height="32" viewBox="0 0 32 32" fill="none" xmlns="http://www.w3.org/2000/svg">
<path fill-rule="evenodd" clip-rule="evenodd" d="M11.2783 25.0969L6.51517 27.6976C6.23566 27.8501 5.98446 28.0377 5.75073 28.2421C8.52777 30.5859 12.1126 31.9999 16.0294 31.9999C19.9173 31.9999 23.4792 30.607 26.2484 28.2951C25.993 28.0793 25.7159 27.8851 25.4087 27.7319L20.3082 25.1795C19.6492 24.8497 19.2329 24.1755 19.2329 23.4381V21.435C19.3763 21.2716 19.5402 21.0617 19.7155 20.8139C20.4106 19.831 20.9365 18.7499 21.301 17.6157C21.9552 17.4137 22.4371 16.8089 22.4371 16.0901V13.952C22.4371 13.4816 22.228 13.0614 21.9034 12.7671V9.67621C21.9034 9.67621 22.5377 4.86621 16.03 4.86621C9.52233 4.86621 10.1566 9.67621 10.1566 9.67621V12.7671C9.83136 13.0614 9.62293 13.4816 9.62293 13.952V16.0901C9.62293 16.6533 9.9187 17.149 10.3615 17.4354C10.8952 19.7611 12.2927 21.435 12.2927 21.435V23.3887C12.2921 24.1002 11.903 24.7556 11.2783 25.0969Z" fill="#EEEEEE"/>
<path fill-rule="evenodd" clip-rule="evenodd" d="M16.2741 0.00238468C7.43875 -0.148691 0.153333 6.89748 0.00238426 15.7402C-0.0833549 20.7541 2.14949 25.2604 5.70464 28.2572C5.9371 28.0541 6.18647 27.868 6.46361 27.7169L11.2378 25.1106C11.864 24.7685 12.254 24.1116 12.254 23.3974V21.4394C12.254 21.4394 10.8526 19.7619 10.3183 17.4311C9.87507 17.144 9.578 16.6479 9.578 16.0829V13.94C9.578 13.4687 9.78752 13.0475 10.113 12.7526V9.65491C10.113 9.65491 9.47716 4.83439 16 4.83439C22.5228 4.83439 21.887 9.65491 21.887 9.65491V12.7526C22.2131 13.0475 22.422 13.4687 22.422 13.94V16.0829C22.422 16.8032 21.9389 17.4093 21.2832 17.6118C20.9179 18.7485 20.3908 19.832 19.694 20.817C19.5183 21.0654 19.3541 21.2757 19.2104 21.4394V23.4469C19.2104 24.186 19.6276 24.8622 20.2881 25.1921L25.4005 27.7502C25.7072 27.9036 25.9844 28.0976 26.2398 28.3134C29.6875 25.4357 31.9149 21.133 31.9976 16.2877C32.1497 7.44498 25.1101 0.15346 16.2741 0.00238468Z" fill="#68C98E"/>
</svg>
